<mxfile host="app.diagrams.net" modified="2021-02-01T11:10:58.774Z" agent="5.0 (Windows NT 10.0; Win64; x64) AppleWebKit/537.36 (KHTML, like Gecko) Chrome/78.0.3904.70 Safari/537.36" etag="0_W03yQaXNCoIDWR073g" version="14.2.9" type="github">
  <diagram id="2QFG6WSZK44Wv-zl51h2" name="第 1 页">
    <mxGraphModel dx="865" dy="416" grid="1" gridSize="10" guides="1" tooltips="1" connect="1" arrows="1" fold="1" page="1" pageScale="1" pageWidth="827" pageHeight="1169" math="0" shadow="0">
      <root>
        <mxCell id="0" />
        <mxCell id="1" parent="0" />
        <mxCell id="mv6PtNg7BML-jMBqRbeE-80" value="" style="rounded=1;whiteSpace=wrap;html=1;dashed=1;labelBackgroundColor=#FFFFFF;sketch=1;strokeColor=#36393d;strokeWidth=2;fontSize=11;fillColor=#eeeeee;" vertex="1" parent="1">
          <mxGeometry x="60" y="595" width="440" height="75" as="geometry" />
        </mxCell>
        <mxCell id="mv6PtNg7BML-jMBqRbeE-12" value="" style="rounded=1;whiteSpace=wrap;html=1;sketch=1;fontSize=14;fillColor=#f5f5f5;strokeColor=#666666;fontColor=#333333;" vertex="1" parent="1">
          <mxGeometry x="529" y="480" width="380" height="200" as="geometry" />
        </mxCell>
        <mxCell id="mv6PtNg7BML-jMBqRbeE-4" style="edgeStyle=orthogonalEdgeStyle;rounded=0;sketch=1;orthogonalLoop=1;jettySize=auto;html=1;exitX=1;exitY=0.3333333333333333;exitDx=0;exitDy=0;exitPerimeter=0;entryX=0;entryY=0.5;entryDx=0;entryDy=0;" edge="1" parent="1" source="mv6PtNg7BML-jMBqRbeE-1" target="mv6PtNg7BML-jMBqRbeE-3">
          <mxGeometry relative="1" as="geometry">
            <Array as="points">
              <mxPoint x="90" y="290" />
            </Array>
          </mxGeometry>
        </mxCell>
        <mxCell id="mv6PtNg7BML-jMBqRbeE-1" value="" style="shape=umlActor;verticalLabelPosition=bottom;verticalAlign=top;html=1;outlineConnect=0;sketch=1;" vertex="1" parent="1">
          <mxGeometry x="60" y="260" width="30" height="60" as="geometry" />
        </mxCell>
        <mxCell id="mv6PtNg7BML-jMBqRbeE-11" style="edgeStyle=orthogonalEdgeStyle;rounded=0;sketch=1;orthogonalLoop=1;jettySize=auto;html=1;exitX=1;exitY=0.5;exitDx=0;exitDy=0;entryX=0;entryY=0.5;entryDx=0;entryDy=0;fontSize=11;" edge="1" parent="1" source="mv6PtNg7BML-jMBqRbeE-3" target="mv6PtNg7BML-jMBqRbeE-5">
          <mxGeometry relative="1" as="geometry" />
        </mxCell>
        <mxCell id="mv6PtNg7BML-jMBqRbeE-45" value="check" style="edgeLabel;html=1;align=center;verticalAlign=middle;resizable=0;points=[];fontSize=11;fontColor=#663300;" vertex="1" connectable="0" parent="mv6PtNg7BML-jMBqRbeE-11">
          <mxGeometry x="-0.1985" y="1" relative="1" as="geometry">
            <mxPoint x="10" y="1" as="offset" />
          </mxGeometry>
        </mxCell>
        <mxCell id="mv6PtNg7BML-jMBqRbeE-3" value="通用数据校验" style="rounded=0;whiteSpace=wrap;html=1;sketch=1;fillColor=#ffcccc;strokeColor=#36393d;" vertex="1" parent="1">
          <mxGeometry x="150" y="270" width="100" height="40" as="geometry" />
        </mxCell>
        <mxCell id="mv6PtNg7BML-jMBqRbeE-42" style="edgeStyle=none;rounded=0;sketch=1;orthogonalLoop=1;jettySize=auto;html=1;entryX=0;entryY=0.25;entryDx=0;entryDy=0;strokeColor=#FF8000;fontSize=14;fontColor=#663300;" edge="1" parent="1" source="mv6PtNg7BML-jMBqRbeE-5" target="mv6PtNg7BML-jMBqRbeE-6">
          <mxGeometry relative="1" as="geometry" />
        </mxCell>
        <mxCell id="mv6PtNg7BML-jMBqRbeE-53" style="edgeStyle=none;rounded=0;sketch=1;orthogonalLoop=1;jettySize=auto;html=1;exitX=0.5;exitY=1;exitDx=0;exitDy=0;entryX=0.5;entryY=0;entryDx=0;entryDy=0;entryPerimeter=0;strokeColor=#6D1F00;fontSize=11;fontColor=#663300;fillColor=#a0522d;" edge="1" parent="1" source="mv6PtNg7BML-jMBqRbeE-5" target="mv6PtNg7BML-jMBqRbeE-50">
          <mxGeometry relative="1" as="geometry" />
        </mxCell>
        <mxCell id="mv6PtNg7BML-jMBqRbeE-5" value="&lt;pre style=&quot;font-family: &amp;#34;courier new&amp;#34; , monospace ; font-size: 10.5pt&quot;&gt;&lt;pre style=&quot;font-size: 10.5pt ; font-family: &amp;#34;courier new&amp;#34; , monospace&quot;&gt;&lt;span style=&quot;background-color: rgb(255 , 255 , 255)&quot;&gt;&lt;font color=&quot;#1a1a1a&quot;&gt;&lt;b&gt;HandlerFactory&lt;/b&gt;&lt;/font&gt;&lt;/span&gt;&lt;/pre&gt;&lt;/pre&gt;" style="shape=process;whiteSpace=wrap;html=1;backgroundOutline=1;sketch=1;fillColor=#cce5ff;strokeColor=#36393d;" vertex="1" parent="1">
          <mxGeometry x="300" y="270" width="190" height="40" as="geometry" />
        </mxCell>
        <mxCell id="mv6PtNg7BML-jMBqRbeE-6" value="" style="rounded=1;whiteSpace=wrap;html=1;sketch=1;fillColor=#d0cee2;strokeColor=#56517e;" vertex="1" parent="1">
          <mxGeometry x="559" y="305" width="340" height="110" as="geometry" />
        </mxCell>
        <mxCell id="mv6PtNg7BML-jMBqRbeE-21" style="edgeStyle=orthogonalEdgeStyle;rounded=0;sketch=1;orthogonalLoop=1;jettySize=auto;html=1;exitX=0.5;exitY=1;exitDx=0;exitDy=0;exitPerimeter=0;entryX=0.5;entryY=0;entryDx=0;entryDy=0;entryPerimeter=0;fontSize=14;fontColor=#CC0000;curved=1;strokeColor=#0066CC;" edge="1" parent="1" source="mv6PtNg7BML-jMBqRbeE-7" target="mv6PtNg7BML-jMBqRbeE-13">
          <mxGeometry relative="1" as="geometry" />
        </mxCell>
        <mxCell id="mv6PtNg7BML-jMBqRbeE-7" value="商家配送" style="html=1;whiteSpace=wrap;shape=isoCube2;backgroundOutline=1;isoAngle=15;sketch=1;fillColor=#dae8fc;strokeColor=#0066CC;" vertex="1" parent="1">
          <mxGeometry x="589" y="320" width="60" height="80" as="geometry" />
        </mxCell>
        <mxCell id="mv6PtNg7BML-jMBqRbeE-29" style="edgeStyle=orthogonalEdgeStyle;curved=1;rounded=0;sketch=1;orthogonalLoop=1;jettySize=auto;html=1;entryX=0.5;entryY=0;entryDx=0;entryDy=0;entryPerimeter=0;fontSize=14;fontColor=#CC0000;strokeColor=#009900;" edge="1" parent="1" source="mv6PtNg7BML-jMBqRbeE-8" target="mv6PtNg7BML-jMBqRbeE-14">
          <mxGeometry relative="1" as="geometry" />
        </mxCell>
        <mxCell id="mv6PtNg7BML-jMBqRbeE-8" value="同城限时达" style="html=1;whiteSpace=wrap;shape=isoCube2;backgroundOutline=1;isoAngle=15;sketch=1;fillColor=#d5e8d4;strokeColor=#009900;" vertex="1" parent="1">
          <mxGeometry x="689" y="320" width="62" height="80" as="geometry" />
        </mxCell>
        <mxCell id="mv6PtNg7BML-jMBqRbeE-33" style="edgeStyle=orthogonalEdgeStyle;curved=1;rounded=0;sketch=1;orthogonalLoop=1;jettySize=auto;html=1;exitX=0.5;exitY=1;exitDx=0;exitDy=0;exitPerimeter=0;fontSize=14;fontColor=#CC0000;strokeColor=#FF8000;" edge="1" parent="1" source="mv6PtNg7BML-jMBqRbeE-9" target="mv6PtNg7BML-jMBqRbeE-16">
          <mxGeometry relative="1" as="geometry" />
        </mxCell>
        <mxCell id="mv6PtNg7BML-jMBqRbeE-9" value="到店自提" style="html=1;whiteSpace=wrap;shape=isoCube2;backgroundOutline=1;isoAngle=15;sketch=1;fillColor=#fff2cc;strokeColor=#FF8000;" vertex="1" parent="1">
          <mxGeometry x="779" y="320" width="60" height="80" as="geometry" />
        </mxCell>
        <mxCell id="mv6PtNg7BML-jMBqRbeE-10" value="配送方式工厂 implement&amp;nbsp; &amp;nbsp;&lt;span style=&quot;font-style: italic ; font-family: &amp;quot;courier new&amp;quot; , monospace ; font-size: 10.5pt&quot;&gt;DeliveryFreightHandleInf&lt;/span&gt;" style="text;html=1;strokeColor=none;fillColor=none;align=center;verticalAlign=middle;whiteSpace=wrap;rounded=0;sketch=1;fontStyle=1;fontSize=14;labelBackgroundColor=#FFFFFF;fontColor=#CC0000;" vertex="1" parent="1">
          <mxGeometry x="510" y="240" width="420" height="40" as="geometry" />
        </mxCell>
        <mxCell id="mv6PtNg7BML-jMBqRbeE-22" style="edgeStyle=orthogonalEdgeStyle;rounded=0;sketch=1;orthogonalLoop=1;jettySize=auto;html=1;exitX=0.5;exitY=1;exitDx=0;exitDy=0;exitPerimeter=0;entryX=0;entryY=0;entryDx=0;entryDy=10.563465399525104;entryPerimeter=0;fontSize=14;fontColor=#CC0000;curved=1;strokeColor=#0066CC;" edge="1" parent="1" source="mv6PtNg7BML-jMBqRbeE-13" target="mv6PtNg7BML-jMBqRbeE-18">
          <mxGeometry relative="1" as="geometry" />
        </mxCell>
        <mxCell id="mv6PtNg7BML-jMBqRbeE-13" value="" style="html=1;whiteSpace=wrap;shape=isoCube2;backgroundOutline=1;isoAngle=15;sketch=1;fontSize=14;" vertex="1" parent="1">
          <mxGeometry x="559" y="510" width="40" height="60" as="geometry" />
        </mxCell>
        <mxCell id="mv6PtNg7BML-jMBqRbeE-30" style="edgeStyle=orthogonalEdgeStyle;curved=1;rounded=0;sketch=1;orthogonalLoop=1;jettySize=auto;html=1;exitX=0.5;exitY=1;exitDx=0;exitDy=0;exitPerimeter=0;entryX=0;entryY=0.5;entryDx=0;entryDy=0;entryPerimeter=0;fontSize=14;fontColor=#CC0000;strokeColor=#009900;" edge="1" parent="1" source="mv6PtNg7BML-jMBqRbeE-14" target="mv6PtNg7BML-jMBqRbeE-15">
          <mxGeometry relative="1" as="geometry" />
        </mxCell>
        <mxCell id="mv6PtNg7BML-jMBqRbeE-14" value="" style="html=1;whiteSpace=wrap;shape=isoCube2;backgroundOutline=1;isoAngle=15;sketch=1;fontSize=14;" vertex="1" parent="1">
          <mxGeometry x="649" y="510" width="40" height="60" as="geometry" />
        </mxCell>
        <mxCell id="mv6PtNg7BML-jMBqRbeE-24" style="edgeStyle=orthogonalEdgeStyle;rounded=0;sketch=1;orthogonalLoop=1;jettySize=auto;html=1;exitX=0.5;exitY=0;exitDx=0;exitDy=0;exitPerimeter=0;entryX=0.5;entryY=1;entryDx=0;entryDy=0;entryPerimeter=0;fontSize=14;fontColor=#CC0000;curved=1;strokeColor=#0066CC;" edge="1" parent="1" source="mv6PtNg7BML-jMBqRbeE-15" target="mv6PtNg7BML-jMBqRbeE-7">
          <mxGeometry relative="1" as="geometry">
            <Array as="points">
              <mxPoint x="731" y="480" />
              <mxPoint x="619" y="480" />
            </Array>
          </mxGeometry>
        </mxCell>
        <mxCell id="mv6PtNg7BML-jMBqRbeE-31" style="edgeStyle=orthogonalEdgeStyle;curved=1;rounded=0;sketch=1;orthogonalLoop=1;jettySize=auto;html=1;exitX=1;exitY=0.5;exitDx=0;exitDy=0;exitPerimeter=0;fontSize=14;fontColor=#CC0000;strokeColor=#97D077;" edge="1" parent="1" source="mv6PtNg7BML-jMBqRbeE-15" target="mv6PtNg7BML-jMBqRbeE-17">
          <mxGeometry relative="1" as="geometry" />
        </mxCell>
        <mxCell id="mv6PtNg7BML-jMBqRbeE-37" value="" style="edgeStyle=orthogonalEdgeStyle;curved=1;rounded=0;sketch=1;orthogonalLoop=1;jettySize=auto;html=1;fontSize=14;fontColor=#CC0000;strokeColor=#009900;" edge="1" parent="1" source="mv6PtNg7BML-jMBqRbeE-15" target="mv6PtNg7BML-jMBqRbeE-17">
          <mxGeometry relative="1" as="geometry" />
        </mxCell>
        <mxCell id="mv6PtNg7BML-jMBqRbeE-15" value="" style="html=1;whiteSpace=wrap;shape=isoCube2;backgroundOutline=1;isoAngle=15;sketch=1;fontSize=14;" vertex="1" parent="1">
          <mxGeometry x="711" y="600" width="40" height="60" as="geometry" />
        </mxCell>
        <mxCell id="mv6PtNg7BML-jMBqRbeE-40" style="edgeStyle=orthogonalEdgeStyle;curved=1;rounded=0;sketch=1;orthogonalLoop=1;jettySize=auto;html=1;entryX=0.5;entryY=1;entryDx=0;entryDy=0;entryPerimeter=0;fontSize=14;fontColor=#663300;exitX=0.5;exitY=1;exitDx=0;exitDy=0;exitPerimeter=0;strokeColor=#FF8000;" edge="1" parent="1" source="mv6PtNg7BML-jMBqRbeE-16" target="mv6PtNg7BML-jMBqRbeE-19">
          <mxGeometry relative="1" as="geometry">
            <Array as="points">
              <mxPoint x="771" y="590" />
              <mxPoint x="859" y="590" />
            </Array>
          </mxGeometry>
        </mxCell>
        <mxCell id="mv6PtNg7BML-jMBqRbeE-16" value="" style="html=1;whiteSpace=wrap;shape=isoCube2;backgroundOutline=1;isoAngle=15;sketch=1;fontSize=14;" vertex="1" parent="1">
          <mxGeometry x="751" y="510" width="40" height="60" as="geometry" />
        </mxCell>
        <mxCell id="mv6PtNg7BML-jMBqRbeE-32" style="edgeStyle=orthogonalEdgeStyle;curved=1;rounded=0;sketch=1;orthogonalLoop=1;jettySize=auto;html=1;exitX=0.5;exitY=0;exitDx=0;exitDy=0;exitPerimeter=0;entryX=0.5;entryY=1;entryDx=0;entryDy=0;entryPerimeter=0;fontSize=14;fontColor=#CC0000;strokeColor=#009900;" edge="1" parent="1" source="mv6PtNg7BML-jMBqRbeE-17" target="mv6PtNg7BML-jMBqRbeE-8">
          <mxGeometry relative="1" as="geometry">
            <Array as="points">
              <mxPoint x="829" y="490" />
              <mxPoint x="720" y="490" />
            </Array>
          </mxGeometry>
        </mxCell>
        <mxCell id="mv6PtNg7BML-jMBqRbeE-17" value="" style="html=1;whiteSpace=wrap;shape=isoCube2;backgroundOutline=1;isoAngle=15;sketch=1;fontSize=14;" vertex="1" parent="1">
          <mxGeometry x="809" y="600" width="40" height="60" as="geometry" />
        </mxCell>
        <mxCell id="mv6PtNg7BML-jMBqRbeE-28" style="edgeStyle=orthogonalEdgeStyle;curved=1;rounded=0;sketch=1;orthogonalLoop=1;jettySize=auto;html=1;exitX=1;exitY=0.5;exitDx=0;exitDy=0;exitPerimeter=0;entryX=0;entryY=0.5;entryDx=0;entryDy=0;entryPerimeter=0;fontSize=14;fontColor=#CC0000;strokeColor=#0066CC;" edge="1" parent="1" source="mv6PtNg7BML-jMBqRbeE-18" target="mv6PtNg7BML-jMBqRbeE-15">
          <mxGeometry relative="1" as="geometry" />
        </mxCell>
        <mxCell id="mv6PtNg7BML-jMBqRbeE-18" value="" style="html=1;whiteSpace=wrap;shape=isoCube2;backgroundOutline=1;isoAngle=15;sketch=1;fontSize=14;" vertex="1" parent="1">
          <mxGeometry x="597" y="600" width="44" height="60" as="geometry" />
        </mxCell>
        <mxCell id="mv6PtNg7BML-jMBqRbeE-36" style="edgeStyle=orthogonalEdgeStyle;curved=1;rounded=0;sketch=1;orthogonalLoop=1;jettySize=auto;html=1;fontSize=14;fontColor=#CC0000;strokeColor=#FF8000;" edge="1" parent="1" source="mv6PtNg7BML-jMBqRbeE-19" target="mv6PtNg7BML-jMBqRbeE-9">
          <mxGeometry relative="1" as="geometry" />
        </mxCell>
        <mxCell id="mv6PtNg7BML-jMBqRbeE-19" value="" style="html=1;whiteSpace=wrap;shape=isoCube2;backgroundOutline=1;isoAngle=15;sketch=1;fontSize=14;" vertex="1" parent="1">
          <mxGeometry x="839" y="510" width="40" height="60" as="geometry" />
        </mxCell>
        <mxCell id="mv6PtNg7BML-jMBqRbeE-20" value="底层支撑能力（service），重复用" style="text;html=1;strokeColor=none;fillColor=none;align=center;verticalAlign=middle;whiteSpace=wrap;rounded=0;labelBackgroundColor=#FFFFFF;sketch=1;fontSize=14;fontStyle=1;fontColor=#663300;" vertex="1" parent="1">
          <mxGeometry x="611" y="700" width="240" as="geometry" />
        </mxCell>
        <mxCell id="mv6PtNg7BML-jMBqRbeE-25" value="" style="html=1;whiteSpace=wrap;shape=isoCube2;backgroundOutline=1;isoAngle=15;sketch=1;fontSize=14;" vertex="1" parent="1">
          <mxGeometry x="591" y="600" width="40" height="60" as="geometry" />
        </mxCell>
        <mxCell id="mv6PtNg7BML-jMBqRbeE-39" value="注重流程组合，链式组装" style="text;html=1;strokeColor=none;fillColor=none;align=center;verticalAlign=middle;whiteSpace=wrap;rounded=0;labelBackgroundColor=#FFFFFF;sketch=1;fontSize=14;fontColor=#CC0000;" vertex="1" parent="1">
          <mxGeometry x="638.5" y="275" width="185" height="25" as="geometry" />
        </mxCell>
        <mxCell id="mv6PtNg7BML-jMBqRbeE-60" style="edgeStyle=none;rounded=0;sketch=1;orthogonalLoop=1;jettySize=auto;html=1;strokeColor=#6D1F00;fontSize=11;fontColor=#663300;fillColor=#a0522d;" edge="1" parent="1" source="mv6PtNg7BML-jMBqRbeE-50" target="mv6PtNg7BML-jMBqRbeE-57">
          <mxGeometry relative="1" as="geometry" />
        </mxCell>
        <mxCell id="mv6PtNg7BML-jMBqRbeE-50" value="Handle" style="html=1;whiteSpace=wrap;shape=isoCube2;backgroundOutline=1;isoAngle=15;labelBackgroundColor=#FFFFFF;sketch=1;strokeColor=#0066CC;fontSize=11;fontColor=#663300;" vertex="1" parent="1">
          <mxGeometry x="347.5" y="330" width="95" height="70" as="geometry" />
        </mxCell>
        <mxCell id="mv6PtNg7BML-jMBqRbeE-51" value="" style="edgeStyle=none;rounded=0;sketch=1;orthogonalLoop=1;jettySize=auto;html=1;strokeColor=#FF8000;fontSize=11;fontColor=#663300;entryX=1;entryY=0.75;entryDx=0;entryDy=0;" edge="1" parent="1" source="mv6PtNg7BML-jMBqRbeE-6" target="mv6PtNg7BML-jMBqRbeE-5">
          <mxGeometry relative="1" as="geometry">
            <mxPoint x="650" y="329.65625" as="sourcePoint" />
            <mxPoint x="500" y="347" as="targetPoint" />
          </mxGeometry>
        </mxCell>
        <mxCell id="mv6PtNg7BML-jMBqRbeE-59" style="edgeStyle=none;rounded=0;sketch=1;orthogonalLoop=1;jettySize=auto;html=1;entryX=0.5;entryY=0;entryDx=0;entryDy=0;strokeColor=#6D1F00;fontSize=11;fontColor=#663300;fillColor=#a0522d;" edge="1" parent="1" source="mv6PtNg7BML-jMBqRbeE-57" target="mv6PtNg7BML-jMBqRbeE-58">
          <mxGeometry relative="1" as="geometry" />
        </mxCell>
        <mxCell id="mv6PtNg7BML-jMBqRbeE-57" value="buildContext" style="rounded=0;whiteSpace=wrap;html=1;labelBackgroundColor=#FFFFFF;sketch=1;strokeColor=#0066CC;fontSize=11;fontColor=#663300;" vertex="1" parent="1">
          <mxGeometry x="335" y="430" width="120" height="30" as="geometry" />
        </mxCell>
        <mxCell id="mv6PtNg7BML-jMBqRbeE-66" style="edgeStyle=none;rounded=0;sketch=1;orthogonalLoop=1;jettySize=auto;html=1;entryX=0.5;entryY=0;entryDx=0;entryDy=0;strokeColor=#6D1F00;fontSize=11;fontColor=#663300;fillColor=#a0522d;" edge="1" parent="1" source="mv6PtNg7BML-jMBqRbeE-58" target="mv6PtNg7BML-jMBqRbeE-64">
          <mxGeometry relative="1" as="geometry" />
        </mxCell>
        <mxCell id="mv6PtNg7BML-jMBqRbeE-75" style="edgeStyle=none;rounded=0;sketch=1;orthogonalLoop=1;jettySize=auto;html=1;exitX=0;exitY=0.5;exitDx=0;exitDy=0;strokeColor=#ae4132;fontSize=11;fontColor=#663300;entryX=1;entryY=0.5;entryDx=0;entryDy=0;fillColor=#fad9d5;" edge="1" parent="1" source="mv6PtNg7BML-jMBqRbeE-58" target="mv6PtNg7BML-jMBqRbeE-76">
          <mxGeometry relative="1" as="geometry">
            <mxPoint x="280" y="495" as="targetPoint" />
          </mxGeometry>
        </mxCell>
        <mxCell id="mv6PtNg7BML-jMBqRbeE-58" value="定制数据校验" style="rounded=0;whiteSpace=wrap;html=1;labelBackgroundColor=#FFFFFF;sketch=1;strokeColor=#0066CC;fontSize=11;fontColor=#663300;" vertex="1" parent="1">
          <mxGeometry x="335" y="480" width="120" height="30" as="geometry" />
        </mxCell>
        <mxCell id="mv6PtNg7BML-jMBqRbeE-67" style="edgeStyle=none;rounded=0;sketch=1;orthogonalLoop=1;jettySize=auto;html=1;strokeColor=#6D1F00;fontSize=11;fontColor=#663300;fillColor=#a0522d;" edge="1" parent="1" source="mv6PtNg7BML-jMBqRbeE-64" target="mv6PtNg7BML-jMBqRbeE-74">
          <mxGeometry relative="1" as="geometry">
            <mxPoint x="280" y="551.7391304347825" as="targetPoint" />
          </mxGeometry>
        </mxCell>
        <mxCell id="mv6PtNg7BML-jMBqRbeE-69" style="edgeStyle=none;rounded=0;sketch=1;orthogonalLoop=1;jettySize=auto;html=1;exitX=0.5;exitY=1;exitDx=0;exitDy=0;strokeColor=#6D1F00;fontSize=11;fontColor=#663300;entryX=0.5;entryY=0;entryDx=0;entryDy=0;dashed=1;strokeWidth=2;fillColor=#a0522d;" edge="1" parent="1" source="mv6PtNg7BML-jMBqRbeE-64" target="mv6PtNg7BML-jMBqRbeE-70">
          <mxGeometry relative="1" as="geometry">
            <mxPoint x="393" y="610" as="targetPoint" />
          </mxGeometry>
        </mxCell>
        <mxCell id="mv6PtNg7BML-jMBqRbeE-64" value="handle" style="rounded=0;whiteSpace=wrap;html=1;labelBackgroundColor=#FFFFFF;sketch=1;strokeColor=#0066CC;fontSize=11;fontColor=#663300;" vertex="1" parent="1">
          <mxGeometry x="335" y="540" width="115" height="30" as="geometry" />
        </mxCell>
        <mxCell id="mv6PtNg7BML-jMBqRbeE-71" style="edgeStyle=none;rounded=0;sketch=1;orthogonalLoop=1;jettySize=auto;html=1;strokeColor=#FF8000;fontSize=11;fontColor=#663300;entryX=1;entryY=0.5;entryDx=0;entryDy=0;dashed=1;strokeWidth=2;" edge="1" parent="1" source="mv6PtNg7BML-jMBqRbeE-70" target="mv6PtNg7BML-jMBqRbeE-73">
          <mxGeometry relative="1" as="geometry">
            <mxPoint x="280" y="625" as="targetPoint" />
          </mxGeometry>
        </mxCell>
        <mxCell id="mv6PtNg7BML-jMBqRbeE-70" value="calculate" style="rounded=0;whiteSpace=wrap;html=1;labelBackgroundColor=#FFFFFF;sketch=1;strokeColor=#0066CC;fontSize=11;fontColor=#663300;dashed=1;strokeWidth=2;" vertex="1" parent="1">
          <mxGeometry x="337.5" y="610" width="115" height="30" as="geometry" />
        </mxCell>
        <mxCell id="mv6PtNg7BML-jMBqRbeE-78" style="edgeStyle=orthogonalEdgeStyle;rounded=0;sketch=1;orthogonalLoop=1;jettySize=auto;html=1;exitX=0;exitY=0.5;exitDx=0;exitDy=0;dashed=1;strokeColor=#FF8000;strokeWidth=2;fontSize=11;fontColor=#663300;" edge="1" parent="1" source="mv6PtNg7BML-jMBqRbeE-73" target="mv6PtNg7BML-jMBqRbeE-1">
          <mxGeometry relative="1" as="geometry" />
        </mxCell>
        <mxCell id="mv6PtNg7BML-jMBqRbeE-73" value="运费计算结果" style="rounded=0;whiteSpace=wrap;html=1;labelBackgroundColor=#FFFFFF;sketch=1;strokeColor=#b46504;fontSize=11;fillColor=#fad7ac;dashed=1;strokeWidth=2;" vertex="1" parent="1">
          <mxGeometry x="160" y="605" width="120" height="40" as="geometry" />
        </mxCell>
        <mxCell id="mv6PtNg7BML-jMBqRbeE-77" style="edgeStyle=orthogonalEdgeStyle;rounded=0;sketch=1;orthogonalLoop=1;jettySize=auto;html=1;exitX=0;exitY=0.5;exitDx=0;exitDy=0;dashed=1;strokeColor=#6D1F00;strokeWidth=2;fontSize=11;fontColor=#663300;fillColor=#a0522d;" edge="1" parent="1" source="mv6PtNg7BML-jMBqRbeE-74" target="mv6PtNg7BML-jMBqRbeE-1">
          <mxGeometry relative="1" as="geometry" />
        </mxCell>
        <mxCell id="mv6PtNg7BML-jMBqRbeE-84" value="响应结果" style="edgeLabel;html=1;align=center;verticalAlign=middle;resizable=0;points=[];fontSize=12;fontColor=#663300;" vertex="1" connectable="0" parent="mv6PtNg7BML-jMBqRbeE-77">
          <mxGeometry x="0.9158" y="11" relative="1" as="geometry">
            <mxPoint x="11" y="17.06" as="offset" />
          </mxGeometry>
        </mxCell>
        <mxCell id="mv6PtNg7BML-jMBqRbeE-74" value="范围校验结果" style="rounded=0;whiteSpace=wrap;html=1;labelBackgroundColor=#FFFFFF;sketch=1;strokeColor=#b46504;fontSize=11;fillColor=#fad7ac;" vertex="1" parent="1">
          <mxGeometry x="160" y="535" width="120" height="40" as="geometry" />
        </mxCell>
        <mxCell id="mv6PtNg7BML-jMBqRbeE-79" style="edgeStyle=orthogonalEdgeStyle;rounded=0;sketch=1;orthogonalLoop=1;jettySize=auto;html=1;dashed=1;strokeWidth=2;fontSize=11;fontColor=#663300;strokeColor=#ae4132;fillColor=#fad9d5;" edge="1" parent="1" source="mv6PtNg7BML-jMBqRbeE-76">
          <mxGeometry relative="1" as="geometry">
            <mxPoint x="80" y="320" as="targetPoint" />
          </mxGeometry>
        </mxCell>
        <mxCell id="mv6PtNg7BML-jMBqRbeE-76" value="参数不合法" style="rounded=0;whiteSpace=wrap;html=1;labelBackgroundColor=#FFFFFF;sketch=1;strokeColor=#ae4132;fontSize=11;fillColor=#fad9d5;" vertex="1" parent="1">
          <mxGeometry x="160" y="475" width="120" height="40" as="geometry" />
        </mxCell>
        <mxCell id="mv6PtNg7BML-jMBqRbeE-81" value="运费计算重构扩展点" style="text;html=1;strokeColor=none;fillColor=none;align=center;verticalAlign=middle;whiteSpace=wrap;rounded=0;dashed=1;labelBackgroundColor=#FFFFFF;sketch=1;fontSize=12;fontColor=#663300;fontStyle=1" vertex="1" parent="1">
          <mxGeometry x="220" y="650" width="130" height="20" as="geometry" />
        </mxCell>
      </root>
    </mxGraphModel>
  </diagram>
</mxfile>
